<?xml version="1.0" standalone="no"?><!DOCTYPE svg PUBLIC "-//W3C//DTD SVG 1.1//EN" "http://www.w3.org/Graphics/SVG/1.1/DTD/svg11.dtd"><svg t="1546912582857" class="icon" style="" viewBox="0 0 1024 1024" version="1.1" xmlns="http://www.w3.org/2000/svg" p-id="5003" xmlns:xlink="http://www.w3.org/1999/xlink" width="200" height="200"><defs><style type="text/css"></style></defs><path d="M877.278357 375.394762l-219.339544-31.618115-98.800213-199.579501c-5.929036-11.857049-19.761066-19.760043-33.593096-19.760043s-25.689079 7.902994-33.593096 21.735024l-94.850252 201.558575-219.339544 31.614022c-13.83203 1.974981-25.689079 11.857049-29.640064 25.689079-3.953032 13.83203 0 27.66406 9.878998 37.544081L318.061986 598.685291 288.419875 819.999816c-1.974981 13.831007 3.953032 27.66406 13.831007 35.571147 5.929036 3.948939 13.83203 7.902994 21.736047 7.902994 5.928013 0 11.857049-1.979074 17.785062-3.954055L529.494443 754.790652l185.747471 102.755292c5.928013 1.973958 11.857049 3.948939 17.785062 3.948939 19.761066 0 35.5691-15.805988 35.5691-37.543058l0-7.902994-29.639041-219.339544 158.082388-158.082388c9.877975-9.882068 13.83203-23.714098 9.877975-37.546128C900.992455 387.247718 891.110387 377.369743 877.278357 375.394762L877.278357 375.394762zM367.462093 594.734306c1.974981-11.857049-1.978051-25.689079-11.857049-33.593096L203.450668 422.815795l213.411531-29.640064c11.857049-1.974981 23.710005-9.877975 29.639041-21.735024l79.043241-183.77249 86.944188 179.818435c5.928013 11.857049 15.810081 19.761066 29.642111 21.74014l207.482495 33.589003L701.409884 565.091172c-9.877975 7.904017-13.83203 21.735024-9.877975 33.593096l23.710005 205.507514-167.961386-98.801237c-9.878998-5.928013-23.711028-3.953032-35.5691 1.974981l-171.914418 94.850252L367.462093 594.734306 367.462093 594.734306z" p-id="5004"></path><path d="M527.520485 160.494321 422.460708 363.108948 178.913832 412.227646 353.216647 588.236312 318.083475 827.689962 537.071002 725.359342 729.452567 817.4569 706.939831 594.376149 866.575598 424.50732 637.355009 383.575072Z" p-id="5005"></path></svg>