<?xml version="1.0" standalone="no"?><!DOCTYPE svg PUBLIC "-//W3C//DTD SVG 1.1//EN" "http://www.w3.org/Graphics/SVG/1.1/DTD/svg11.dtd"><svg t="1546670978035" class="icon" style="" viewBox="0 0 1024 1024" version="1.1" xmlns="http://www.w3.org/2000/svg" p-id="2822" xmlns:xlink="http://www.w3.org/1999/xlink" width="200" height="200"><defs><style type="text/css"></style></defs><path d="M551.4 569.8h51.2c7.7 0 12.8-5.1 12.8-12.8v-51.2c0-7.7-5.1-12.8-12.8-12.8h-51.2c-7.7 0-12.8 5.1-12.8 12.8V557c0 7.7 5.1 12.8 12.8 12.8zM679.4 569.8h51.2c7.7 0 12.8-5.1 12.8-12.8v-51.2c0-7.7-5.1-12.8-12.8-12.8h-51.2c-7.7 0-12.8 5.1-12.8 12.8V557c0 7.7 5.1 12.8 12.8 12.8zM423.4 569.8h51.2c7.7 0 12.8-5.1 12.8-12.8v-51.2c0-7.7-5.1-12.8-12.8-12.8h-51.2c-7.7 0-12.8 5.1-12.8 12.8V557c0 7.7 5.1 12.8 12.8 12.8zM679.4 751.8h51.2c7.7 0 12.8-5.1 12.8-12.8v-51.2c0-7.7-5.1-12.8-12.8-12.8h-51.2c-7.7 0-12.8 5.1-12.8 12.8V739c0 7.7 5.1 12.8 12.8 12.8zM551.4 751.8h51.2c7.7 0 12.8-5.1 12.8-12.8v-51.2c0-7.7-5.1-12.8-12.8-12.8h-51.2c-7.7 0-12.8 5.1-12.8 12.8V739c0 7.7 5.1 12.8 12.8 12.8zM295.4 751.8h51.2c7.7 0 12.8-5.1 12.8-12.8v-51.2c0-7.7-5.1-12.8-12.8-12.8h-51.2c-7.7 0-12.8 5.1-12.8 12.8V739c0 7.7 5.1 12.8 12.8 12.8zM295.4 569.8h51.2c7.7 0 12.8-5.1 12.8-12.8v-51.2c0-7.7-5.1-12.8-12.8-12.8h-51.2c-7.7 0-12.8 5.1-12.8 12.8V557c0 7.7 5.1 12.8 12.8 12.8zM423.4 751.8h51.2c7.7 0 12.8-5.1 12.8-12.8v-51.2c0-7.7-5.1-12.8-12.8-12.8h-51.2c-7.7 0-12.8 5.1-12.8 12.8V739c0 7.7 5.1 12.8 12.8 12.8z" p-id="2823"></path><path d="M803 901H219c-49.6 0-90-40.4-90-90V260c0-49.6 40.4-90 90-90h584c49.6 0 90 40.4 90 90v551c0 49.6-40.4 90-90 90zM219 230c-16.5 0-30 13.5-30 30v551c0 16.5 13.5 30 30 30h584c16.5 0 30-13.5 30-30V260c0-16.5-13.5-30-30-30H219z" p-id="2824"></path><path d="M177 337h668v60H177zM342 276c-16.6 0-30-13.4-30-30v-91c0-16.6 13.4-30 30-30s30 13.4 30 30v91c0 16.6-13.4 30-30 30zM665 276c-16.6 0-30-13.4-30-30v-91c0-16.6 13.4-30 30-30s30 13.4 30 30v91c0 16.6-13.4 30-30 30z" p-id="2825"></path></svg>