<?xml version="1.0" standalone="no"?><!DOCTYPE svg PUBLIC "-//W3C//DTD SVG 1.1//EN" "http://www.w3.org/Graphics/SVG/1.1/DTD/svg11.dtd"><svg t="1548849799671" class="icon" style="" viewBox="0 0 1147 1024" version="1.1" xmlns="http://www.w3.org/2000/svg" p-id="16921" xmlns:xlink="http://www.w3.org/1999/xlink" width="224.0234375" height="200"><defs><style type="text/css"></style></defs><path d="M1029.47284331 208.023567l-90.728881 91.862855c-0.341293 0.374321-0.176151 0.957822-0.539463 1.310125s-0.913784 0.19817-1.277096 0.539463L598.37579031 644.515251c-1.310125 2.267947-0.968832 5.086366-2.906495 7.024029s-4.634979 1.541323-6.825859 2.829429l-15.237079 15.413231-243.947404 62.115319 63.997935-240.138134L857.13090531 35.692639a121.863608 121.863608 0 0 1 172.341938 172.330928zM389.64761831 673.602219l136.24195-48.562686-85.763619-85.774629z m142.572384-226.79468c-1.552333 1.563342-2.20189 3.6111-3.512014 5.295546l-44.191935 45.458021 85.081034 84.981948 63.656643-64.51538 239.356463-239.345454-86.15996-86.170969L532.22000231 446.763501zM986.38185431 78.772618a60.926299 60.926299 0 0 0-86.159959 0l-70.691682 70.691682 86.15996 86.159959 70.691681-70.691681a60.90428 60.90428 0 0 0 0-86.15996z m-441.016568 43.07998h-274.135317a60.926299 60.926299 0 0 0-60.926299 60.926299v609.285009a60.91529 60.91529 0 0 0 60.926299 60.926299H880.47094031a60.91529 60.91529 0 0 0 60.926299-60.926299V456.958252a30.46315 30.46315 0 1 1 60.926299 0v335.116664A121.852598 121.852598 0 0 1 880.47094031 913.927514H271.18593131A121.852598 121.852598 0 0 1 149.36636131 792.074916V182.778897A121.852598 121.852598 0 0 1 271.18593131 60.926299h274.135317a30.46315 30.46315 0 1 1 0 60.926299z m0 0" p-id="16922"></path></svg>