<?xml version="1.0" standalone="no"?><!DOCTYPE svg PUBLIC "-//W3C//DTD SVG 1.1//EN" "http://www.w3.org/Graphics/SVG/1.1/DTD/svg11.dtd"><svg t="1546859420809" class="icon" style="" viewBox="0 0 1024 1024" version="1.1" xmlns="http://www.w3.org/2000/svg" p-id="507" xmlns:xlink="http://www.w3.org/1999/xlink" width="200" height="200"><defs><style type="text/css"></style></defs><path d="M147.01175 430.890704c-44.791136 0-81.108273 36.303834-81.108273 81.109296 0 44.778856 36.316114 81.108273 81.108273 81.108273 44.792159 0 81.109296-36.329417 81.109296-81.108273C228.121046 467.194538 191.804932 430.890704 147.01175 430.890704zM511.999488 430.890704c-44.791136 0-81.108273 36.303834-81.108273 81.109296 0 44.778856 36.316114 81.108273 81.108273 81.108273 44.792159 0 81.109296-36.329417 81.109296-81.108273C593.108784 467.194538 556.791647 430.890704 511.999488 430.890704zM876.987227 430.890704c-44.791136 0-81.108273 36.303834-81.108273 81.109296 0 44.778856 36.316114 81.108273 81.108273 81.108273s81.108273-36.329417 81.108273-81.108273C958.094476 467.194538 921.778362 430.890704 876.987227 430.890704z" p-id="508"></path></svg>