<?xml version="1.0" standalone="no"?><!DOCTYPE svg PUBLIC "-//W3C//DTD SVG 1.1//EN" "http://www.w3.org/Graphics/SVG/1.1/DTD/svg11.dtd"><svg t="1546918554296" class="icon" style="" viewBox="0 0 1024 1024" version="1.1" xmlns="http://www.w3.org/2000/svg" p-id="3677" xmlns:xlink="http://www.w3.org/1999/xlink" width="200" height="200"><defs><style type="text/css"></style></defs><path d="M874.666667 64H149.333333c-83.2 0-149.333333 66.133333-149.333333 149.333333v597.333334c0 83.2 66.133333 149.333333 149.333333 149.333333h725.333334c83.2 0 149.333333-66.133333 149.333333-149.333333V213.333333c0-83.2-66.133333-149.333333-149.333333-149.333333zM149.333333 149.333333h725.333334c36.266667 0 64 27.733333 64 64v29.866667L522.666667 505.6 85.333333 243.2V213.333333c0-36.266667 27.733333-64 64-64z m725.333334 725.333334H149.333333c-36.266667 0-64-27.733333-64-64V341.333333l437.333334 262.4L938.666667 343.466667V810.666667c0 36.266667-27.733333 64-64 64z" p-id="3678"></path></svg>