<?xml version="1.0" standalone="no"?><!DOCTYPE svg PUBLIC "-//W3C//DTD SVG 1.1//EN" "http://www.w3.org/Graphics/SVG/1.1/DTD/svg11.dtd"><svg t="1548845945432" class="icon" style="" viewBox="0 0 1024 1024" version="1.1" xmlns="http://www.w3.org/2000/svg" p-id="14522" xmlns:xlink="http://www.w3.org/1999/xlink" width="200" height="200"><defs><style type="text/css"></style></defs><path d="M897 800H130c-35.3 0-64-28.7-64-64V161.4c0-35.3 28.7-64 64-64h767c35.3 0 64 28.7 64 64V736c0 35.3-28.7 64-64 64z m-766.9-64H897l0.1-0.1V161.4l-0.1-0.1H130.1l-0.1 0.1 0.1 574.6c-0.1 0-0.1 0 0 0z" p-id="14523"></path><path d="M801.3 705h-97.7c-17.7 0-32-14.3-32-32s14.3-32 32-32h97.5v-94.8c0-17.7 14.3-32 32-32s32 14.3 32 32V641c0.1 35.3-28.6 64-63.8 64zM833.2 385c-17.7 0-32-14.3-32-32v-96.2h-96c-17.7 0-32-14.3-32-32s14.3-32 32-32h96.1c35.2 0 63.9 28.7 63.9 64V353c0 17.7-14.4 32-32 32z m-31.9-128.2zM193 385c-17.7 0-32-14.3-32-32v-96.2c0-35.3 28.7-64 63.9-64H321c17.7 0 32 14.3 32 32s-14.3 32-32 32h-96v96.3c0 17.6-14.3 31.9-32 31.9zM320.7 705H225c-35.2 0-63.9-28.7-63.9-64v-95c0-17.7 14.3-32 32-32s32 14.3 32 32v95h95.6c17.7 0 32 14.3 32 32s-14.3 32-32 32zM96.9 928c-17.7 0-32-14.3-32-32s14.3-32 32-32l831.5-0.7c17.7 0 32 14.3 32 32s-14.3 32-32 32l-831.5 0.7c0.1 0 0 0 0 0z" p-id="14524"></path></svg>