<?xml version="1.0" standalone="no"?><!DOCTYPE svg PUBLIC "-//W3C//DTD SVG 1.1//EN" "http://www.w3.org/Graphics/SVG/1.1/DTD/svg11.dtd"><svg t="1548849745677" class="icon" style="" viewBox="0 0 1024 1024" version="1.1" xmlns="http://www.w3.org/2000/svg" p-id="16161" xmlns:xlink="http://www.w3.org/1999/xlink" width="200" height="200"><defs><style type="text/css"></style></defs><path d="M887 96H139c-40.2 0-73 32.7-73 73v514.5c0 40.2 32.7 73 73 73h748c40.2 0 73-32.7 73-73V169c0-40.3-32.7-73-73-73z m-748 64h748c4.9 0 9 4.1 9 9v404H130V169c0-4.9 4.1-9 9-9z m748 532.4H139c-4.9 0-9-4.1-9-9V640h766v43.5c0 4.8-4.1 8.9-9 8.9zM627.9 837.7c-7.5-8.5-18.2-13.4-29.6-13.4H426.2c-11.5 0-22.5 5-29.9 13.8l-27.1 31.7c-9.2 10.7-1.5 27.3 12.6 27.3h261.8c14.2 0 21.8-16.8 12.4-27.5l-28.1-31.9z" p-id="16162"></path></svg>