<?xml version="1.0" standalone="no"?><!DOCTYPE svg PUBLIC "-//W3C//DTD SVG 1.1//EN" "http://www.w3.org/Graphics/SVG/1.1/DTD/svg11.dtd"><svg t="1548209565164" class="icon" style="" viewBox="0 0 1024 1024" version="1.1" xmlns="http://www.w3.org/2000/svg" p-id="7160" xmlns:xlink="http://www.w3.org/1999/xlink" width="200" height="200"><defs><style type="text/css"></style></defs><path d="M664.2 734.8v60.9c0 8.2-3 15.4-9 21.4s-13.2 9-21.4 9H390.3c-8.2 0-15.4-3-21.4-9s-9-13.1-9-21.4v-60.9c0-8.2 3-15.4 9-21.4s13.1-9 21.4-9h30.4V521.7h-30.4c-8.2 0-15.4-3-21.4-9s-9-13.1-9-21.4v-60.9c0-8.2 3-15.4 9-21.4s13.1-9 21.4-9h182.6c8.2 0 15.4 3 21.4 9s9 13.2 9 21.4v273.9h30.4c8.2 0 15.4 3 21.4 9 6 6.1 9.1 13.2 9.1 21.5zM603.3 187v91.3c0 8.2-3 15.4-9 21.4s-13.2 9-21.4 9H451.1c-8.2 0-15.4-3-21.4-9s-9-13.1-9-21.4V187c0-8.2 3-15.4 9-21.4s13.1-9 21.4-9h121.7c8.2 0 15.4 3 21.4 9 6.1 6 9.1 13.2 9.1 21.4z" p-id="7161"></path></svg>