<?xml version="1.0" standalone="no"?><!DOCTYPE svg PUBLIC "-//W3C//DTD SVG 1.1//EN" "http://www.w3.org/Graphics/SVG/1.1/DTD/svg11.dtd"><svg t="1550337962328" class="icon" style="" viewBox="0 0 1024 1024" version="1.1" xmlns="http://www.w3.org/2000/svg" p-id="6103" xmlns:xlink="http://www.w3.org/1999/xlink" width="200" height="200"><defs><style type="text/css"></style></defs><path d="M870.4 1024a51.2 51.2 0 0 1-25.3952-6.7584L512 826.88 178.9952 1017.2416A51.2 51.2 0 0 1 102.4 972.8V51.2a51.2 51.2 0 0 1 51.2-51.2h716.8a51.2 51.2 0 0 1 51.2 51.2v921.6a51.2 51.2 0 0 1-51.2 51.2zM512 716.8a51.2 51.2 0 0 1 25.3952 6.7584L819.2 884.5568V102.4H204.8v782.1568l281.8048-160.9984A51.2 51.2 0 0 1 512 716.8z m204.8-256H307.2v-102.4h409.6v102.4z" p-id="6104"></path></svg>