<?xml version="1.0" standalone="no"?><!DOCTYPE svg PUBLIC "-//W3C//DTD SVG 1.1//EN" "http://www.w3.org/Graphics/SVG/1.1/DTD/svg11.dtd"><svg t="1550337333931" class="icon" style="" viewBox="0 0 1024 1024" version="1.1" xmlns="http://www.w3.org/2000/svg" p-id="3042" xmlns:xlink="http://www.w3.org/1999/xlink" width="200" height="200"><defs><style type="text/css"></style></defs><path d="M515.453147 953.676351c-113.721041 0-266.50168-6.989181-348.389712-40.166815-40.377616-16.324804-68.306712-54.987359-71.154573-98.450243-1.556449-23.288402-2.13564-48.580438 4.166903-75.402317 11.657504-71.839165 77.458139-134.582161 195.267289-185.059809 10.812253-4.641717 22.205745-9.520841 32.676214-14.266935-33.17661-47.920406-61.265342-124.798331-60.262502-226.704278l0.185218-5.195326c5.300726-117.887944 82.864266-245.955738 240.445234-245.955738l7.066953 0c155.12708 0 233.402841 127.276778 240.497423 245.587348l0.209778 5.27412c0.923022 102.274338-27.110451 179.153286-60.234873 227.02048 10.654664 4.799306 22.073738 9.705036 32.413224 14.134929C846.277808 605.022627 912.158261 667.791206 924.105361 741.056859c5.986341 25.396413 5.432733 50.715055 3.876284 74.107835-2.954285 43.938722-30.065759 81.546248-70.78516 98.266048C775.782244 946.68717 626.431727 953.676351 515.453147 953.676351zM508.386194 143.494135c-112.113427 0-156.024519 91.435479-159.559019 169.737846-1.37123 137.957025 55.963593 194.739263 62.504566 200.75221l10.022261 9.230222 2.426259 13.424754c0.632403 3.533476 1.26583 8.623401 1.424442 15.34857l0.052189 2.927679-0.36839 2.87549c-0.317225 2.846838-1.001817 6.249331-1.739621 9.150404l-3.824095 15.138792-12.948917 8.650007c-18.356067 12.236696-47.840588 24.896017-79.066777 38.319747-89.457428 38.319747-140.463102 81.57183-147.531078 125.035738l-0.606821 3.058662c-4.272303 18.302855-3.481288 36.657898-2.426259 52.535517 0.844228 12.738116 8.966209 23.972994 20.729114 28.746718 53.66934 21.731954 169.579233 34.231639 317.981145 34.231639 144.472416 0 257.850649-12.473079 311.044152-34.205033 11.869329-4.880147 19.780509-15.877619 20.651342-28.667923 1.107217-16.615423 1.819438-34.364669-2.215458-51.613518l-0.606821-3.085268c-7.278777-44.49233-58.364269-87.769996-147.900491-126.143978-29.644157-12.684904-60.288085-25.845645-78.908164-38.240953l-12.395308-8.281617-4.061502-14.320147c-1.055029-3.692089-1.819438-7.91118-2.136663-11.525498l-0.209778-2.110057 0.025583-2.136663c0.105401-6.487761 0.660032-11.365862 1.213641-14.848173l2.215458-13.951757 10.417257-9.520841c6.513344-5.986341 63.797002-62.47796 62.557778-199.459774-3.851725-64.561411-41.695634-171.055864-159.690002-171.055864L508.386194 143.491065z" p-id="3043"></path></svg>