<?xml version="1.0" standalone="no"?><!DOCTYPE svg PUBLIC "-//W3C//DTD SVG 1.1//EN" "http://www.w3.org/Graphics/SVG/1.1/DTD/svg11.dtd"><svg t="1547909245625" class="icon" style="" viewBox="0 0 1024 1024" version="1.1" xmlns="http://www.w3.org/2000/svg" p-id="2025" xmlns:xlink="http://www.w3.org/1999/xlink" width="200" height="200"><defs><style type="text/css"></style></defs><path d="M716.2 130H308c-99 0-180 81-180 180v404c0 99 81 180 180 180h408.2c99 0 180-81 180-180V310c0-99-81-180-180-180z m-42.1 61v178.5c0 17.4-14.1 31.5-31.5 31.5h-261c-17.4 0-31.5-14.1-31.5-31.5V191h324z m162.1 523c-0.3 66.2-53.8 119.7-120 120H308c-66.2-0.3-119.7-53.8-120-120V310c0.3-60.1 44.4-109.7 102.1-118.6v178.1c0.1 50.5 41 91.5 91.5 91.5h261c50.5-0.1 91.5-41 91.5-91.5V191.4c57.6 8.9 101.8 58.5 102 118.6v404z" p-id="2026"></path><path d="M574 225h60v128h-60z" p-id="2027"></path></svg>