<?xml version="1.0" standalone="no"?><!DOCTYPE svg PUBLIC "-//W3C//DTD SVG 1.1//EN" "http://www.w3.org/Graphics/SVG/1.1/DTD/svg11.dtd"><svg t="1550146222002" class="icon" style="" viewBox="0 0 1024 1024" version="1.1" xmlns="http://www.w3.org/2000/svg" p-id="2921" xmlns:xlink="http://www.w3.org/1999/xlink" width="200" height="200"><defs><style type="text/css"></style></defs><path d="M512 128c-211.7 0-384 172.3-384 384s172.3 384 384 384 384-172.3 384-384-172.3-384-384-384z m0 717.4c-183.8 0-333.4-149.6-333.4-333.4S328.2 178.6 512 178.6 845.4 328.2 845.4 512 695.8 845.4 512 845.4z" p-id="2922"></path><path d="M540 414.8c-7.5-7.5-17.4-11.6-28-11.6s-20.5 4.1-28 11.6L321.2 577.6c-9.9 9.9-9.9 25.9 0 35.8 9.9 9.9 25.9 9.9 35.8 0l155-155 155 155c4.9 4.9 11.4 7.4 17.9 7.4s13-2.5 17.9-7.4c9.9-9.9 9.9-25.9 0-35.8L540 414.8z" p-id="2923"></path></svg>