<?xml version="1.0" standalone="no"?><!DOCTYPE svg PUBLIC "-//W3C//DTD SVG 1.1//EN" "http://www.w3.org/Graphics/SVG/1.1/DTD/svg11.dtd"><svg t="1546912829138" class="icon" style="" viewBox="0 0 1024 1024" version="1.1" xmlns="http://www.w3.org/2000/svg" p-id="7278" xmlns:xlink="http://www.w3.org/1999/xlink" width="200" height="200"><defs><style type="text/css"></style></defs><path d="M512 256C264.58 256 64 512 64 512s200.58 256 448 256 448-256 448-256-200.58-256-448-256z m0 448c-106 0-192-86-192-192s86-192 192-192 192 86 192 192-86 192-192 192z" p-id="7279"></path><path d="M512 512m-160 0a160 160 0 1 0 320 0 160 160 0 1 0-320 0Z" p-id="7280"></path></svg>